<?xml version="1.0" standalone="no"?>
<!DOCTYPE svg PUBLIC "-//W3C//DTD SVG 20010904//EN"
 "http://www.w3.org/TR/2001/REC-SVG-20010904/DTD/svg10.dtd">
<svg version="1.0" xmlns="http://www.w3.org/2000/svg"
 width="224.000000pt" height="194.000000pt" viewBox="0 0 224.000000 194.000000"
 preserveAspectRatio="xMidYMid meet">

<g transform="translate(0.000000,194.000000) scale(0.100000,-0.100000)"
fill="#000000" stroke="none">
<path d="M1020 1923 c-257 -41 -427 -128 -591 -301 -139 -146 -222 -323 -250
-528 -16 -119 -7 -248 18 -282 26 -35 47 -40 187 -41 l120 -1 45 49 c57 61
104 77 165 56 22 -8 48 -25 56 -37 8 -13 26 -33 39 -44 25 -22 48 -45 87 -85
46 -48 83 -79 94 -79 22 0 67 -40 80 -70 12 -30 10 -97 -5 -132 -6 -15 -1 -18
32 -18 45 0 73 23 73 59 0 18 4 22 18 16 9 -5 31 -10 49 -13 37 -5 73 25 73
62 0 24 1 24 28 10 15 -7 34 -14 43 -14 27 0 69 40 69 66 0 24 14 32 25 14 11
-18 74 -11 95 10 33 33 25 72 -27 137 -216 267 -397 483 -405 483 -5 0 -58
-27 -116 -59 -118 -65 -166 -78 -234 -61 -65 17 -103 58 -102 113 0 23 3 54 8
70 l8 27 -126 0 c-69 0 -126 4 -126 8 0 19 67 111 123 170 103 106 219 174
366 212 103 27 270 27 376 0 75 -19 219 -83 231 -101 3 -5 -5 -25 -17 -45 -34
-56 -21 -62 166 -66 l160 -3 -1 30 c-1 17 -25 90 -54 163 -57 145 -66 153
-110 101 l-26 -32 -74 41 c-169 93 -410 141 -570 115z"/>
<path d="M1073 1495 c-33 -14 -307 -216 -318 -235 -15 -24 5 -58 41 -70 52
-17 82 -8 225 71 86 47 133 68 142 62 8 -4 70 -75 137 -158 350 -427 351 -427
370 -410 12 11 39 15 104 15 l88 0 -6 -27 c-12 -50 -65 -154 -110 -217 -178
-250 -501 -369 -803 -296 -82 19 -196 69 -254 111 l-30 21 26 33 c27 36 31 50
15 60 -11 7 -254 34 -303 35 -16 0 -30 -7 -34 -16 -3 -8 16 -83 43 -165 53
-164 63 -176 110 -120 l25 30 75 -49 c151 -98 310 -143 509 -143 206 0 363 46
524 153 336 225 498 640 401 1026 -30 120 -37 124 -215 124 l-143 0 -235 90
c-201 77 -244 90 -294 90 -32 -1 -72 -7 -90 -15z"/>
<path d="M648 813 c-24 -6 -98 -101 -98 -125 0 -32 47 -71 81 -66 23 4 29 1
29 -14 0 -10 12 -30 26 -45 20 -20 32 -24 55 -19 26 5 29 3 29 -19 0 -31 41
-59 75 -53 14 3 25 1 25 -3 0 -20 42 -49 69 -49 36 0 71 40 71 81 0 38 -34 72
-66 66 -16 -3 -24 0 -24 9 0 24 -39 54 -68 54 -25 0 -29 4 -29 31 0 38 -24 59
-68 59 -29 0 -31 3 -28 28 7 44 -33 77 -79 65z"/>
</g>
</svg>
