<svg viewBox="0 0 512 512" xmlns="http://www.w3.org/2000/svg"><path d="m471.95 253.05c0 120.9-98.01 218.91-218.91 218.91s-218.91-98.01-218.91-218.91 98.01-218.91 218.91-218.91 218.91 98.01 218.91 218.91" fill="#afb922" fill-rule="evenodd"/><path d="m182.19 106.91c-46.719.995-84.77 49.565-73.66 95.28 5.881 31.742 33.901 50.28 54.34 72.56-30.06 33.581-22.423 90.94 14.844 116.09 28.511 28.511 54.736 54.955 80.53 81.03 117.07-2.737 211.38-97.37 213.63-214.56-31.46-31.497-62.932-62.961-94.59-94.25-28.18-25.02-74.25-25.04-102.53-.188-22.755-21.03-42-49.857-74.969-54.781-5.072-.901-10.226-1.268-15.375-1.188-.746-.008-1.477-.016-2.219 0" opacity=".25"/><g fill-rule="evenodd"><path d="m256 1c-140.83 0-255 114.17-255 255s114.17 255 255 255 255-114.17 255-255-114.17-255-255-255m8.827 44.931c120.9 0 218.9 98 218.9 218.9s-98 218.9-218.9 218.9-218.93-98-218.93-218.9 98.03-218.9 218.93-218.9" fill-opacity=".067"/><g fill-opacity=".129"><path d="m256 4.43c-138.94 0-251.57 112.63-251.57 251.57s112.63 251.57 251.57 251.57 251.57-112.63 251.57-251.57-112.63-251.57-251.57-251.57m5.885 38.556c120.9 0 218.9 98 218.9 218.9s-98 218.9-218.9 218.9-218.93-98-218.93-218.9 98.03-218.9 218.93-218.9"/><path d="m256 8.36c-136.77 0-247.64 110.87-247.64 247.64s110.87 247.64 247.64 247.64 247.64-110.87 247.64-247.64-110.87-247.64-247.64-247.64m2.942 31.691c120.9 0 218.9 98 218.9 218.9s-98 218.9-218.9 218.9-218.93-98-218.93-218.9 98.03-218.9 218.93-218.9"/></g><path d="m253.04 7.86c-135.42 0-245.19 109.78-245.19 245.19 0 135.42 109.78 245.19 245.19 245.19 135.42 0 245.19-109.78 245.19-245.19 0-135.42-109.78-245.19-245.19-245.19zm0 26.297c120.9 0 218.9 98 218.9 218.9s-98 218.9-218.9 218.9-218.93-98-218.93-218.9 98.03-218.9 218.93-218.9z" fill="#fff" stroke="#000" stroke-opacity=".31" stroke-width="4.904"/></g><text x="729.64001" y="231.36"><tspan x="729.64001" y="231.36"/></text><text transform="scale(4.0128 .2492)" x="378.91" y="579.26001"/><text x="1310.91" y="151.36"><tspan x="1310.91" y="151.36"/></text><text transform="scale(4.0128 .2492)" x="523.76001" y="258.22"/><text x="239.33" y="-29.9"><tspan x="239.33" y="-29.9"/></text><text transform="scale(4.0128 .2492)" x="256.72" y="-469.13"/><text x="1337.38" y="-246.37"><tspan x="1337.38" y="-246.37"/></text><text transform="scale(4.0128 .2492)" x="530.35999" y="-1337.8"/><text x="1918.65" y="-326.37"><tspan x="1918.65" y="-326.37"/></text><text transform="scale(4.0128 .2492)" x="675.21002" y="-1658.83"/><text x="1529.53" y="-798.77002"><tspan x="1529.53" y="-798.77002"/></text><text transform="scale(4.0128 .2492)" x="578.23999" y="-3554.48"/><text x="2110.79" y="-878.78003"><tspan x="2110.79" y="-878.78003"/></text><text transform="scale(4.0128 .2492)" x="723.09003" y="-3875.52"/><text x="277.98999" y="535.94"><tspan x="277.98999" y="535.94"/></text><path d="m188.4 106.93a79.215 79.215 0 0 0 -81.519 79.182 79.215 79.215 0 0 0 56.132 75.622c15.525-14.758 35.991-24.22 57.786-24.2 6.01-.209 12.01.341 17.944 1.33-.51-2.773-.918-5.579-1.115-8.414-2.702-24.954 7.234-49.5 24.13-67.46a79.215 79.215 0 0 0 -73.356-56.06m139.81 37.254a79.215 79.215 0 0 0 -81.519 79.182 79.218 79.218 0 0 0 158.44 0 79.215 79.215 0 0 0 -76.916-79.182m-102.52 102.52a79.215 79.215 0 0 0 -81.519 79.182 79.218 79.218 0 0 0 158.44 0 79.215 79.215 0 0 0 -2.0137-17.512c-27.786-8.606-50.89-31.751-59.51-59.656a79.215 79.215 0 0 0 -15.39-2.0137" fill="#fff"/></svg>